<?xml version="1.0" encoding="UTF-8" standalone="no"?>
<!DOCTYPE svg PUBLIC "-//W3C//DTD SVG 1.1//EN" "http://www.w3.org/Graphics/SVG/1.1/DTD/svg11.dtd">
<svg xmlns:xlink="http://www.w3.org/1999/xlink" width="504pt" height="230.4pt" viewBox="0 0 504 230.4" xmlns="http://www.w3.org/2000/svg" version="1.1"><title> - upload.wikimedia.org/ </title>
 <metadata>
  <rdf:RDF xmlns:dc="http://purl.org/dc/elements/1.1/" xmlns:cc="http://creativecommons.org/ns#" xmlns:rdf="http://www.w3.org/1999/02/22-rdf-syntax-ns#">
   <cc:Work>
    <dc:type rdf:resource="http://purl.org/dc/dcmitype/StillImage"/>
    <dc:date>2024-03-27T19:05:33.651074</dc:date>
    <dc:format>image/svg+xml</dc:format>
    <dc:creator>
     <cc:Agent>
      <dc:title>Matplotlib v3.7.2, https://matplotlib.org/</dc:title>
     </cc:Agent>
    </dc:creator>
   </cc:Work>
  </rdf:RDF>
 </metadata>
 <defs>
  <style type="text/css">*{stroke-linejoin: round; stroke-linecap: butt}</style>
 </defs>
 <g id="figure_1">
  <g id="patch_1">
   <path d="M 0 230.4  L 504 230.4  L 504 0  L 0 0  L 0 230.4  z " style="fill: none"/>
  </g>
  <g id="axes_1">
   <g id="patch_2">
    <path d="M 40.72 189.68  L 484.56 189.68  L 484.56 19.44  L 40.72 19.44  z " style="fill: #ffffff"/>
   </g>
   <g id="PolyCollection_1">
    <path d="M 40.72 189.642265  L 40.72 189.68  L 42.9392 189.68  L 45.1584 189.68  L 47.3776 189.68  L 49.5968 189.68  L 51.816 189.68  L 54.0352 189.68  L 56.2544 189.68  L 58.4736 189.68  L 60.6928 189.68  L 62.912 189.68  L 65.1312 189.68  L 67.3504 189.68  L 69.5696 189.68  L 71.7888 189.68  L 74.008 189.68  L 76.2272 189.68  L 78.4464 189.68  L 80.6656 189.68  L 82.8848 189.68  L 85.104 189.68  L 87.3232 189.68  L 89.5424 189.68  L 91.7616 189.68  L 93.9808 189.68  L 96.2 189.68  L 98.4192 189.68  L 100.6384 189.68  L 102.8576 189.68  L 105.0768 189.68  L 107.296 189.68  L 109.5152 189.68  L 111.7344 189.68  L 113.9536 189.68  L 116.1728 189.68  L 118.392 189.68  L 120.6112 189.68  L 122.8304 189.68  L 125.0496 189.68  L 127.2688 189.68  L 129.488 189.68  L 131.7072 189.68  L 133.9264 189.68  L 136.1456 189.68  L 138.3648 189.68  L 140.584 189.68  L 142.8032 189.68  L 145.0224 189.68  L 147.2416 189.68  L 149.4608 189.68  L 151.68 189.68  L 153.8992 189.68  L 156.1184 189.68  L 158.3376 189.68  L 160.5568 189.68  L 162.776 189.68  L 164.9952 189.68  L 167.2144 189.68  L 169.4336 189.68  L 171.6528 189.68  L 173.872 189.68  L 176.0912 189.68  L 178.3104 189.68  L 180.5296 189.68  L 182.7488 189.68  L 184.968 189.68  L 187.1872 189.68  L 189.4064 189.68  L 191.6256 189.68  L 193.8448 189.68  L 196.064 189.68  L 198.2832 189.68  L 200.5024 189.68  L 202.7216 189.68  L 204.9408 189.68  L 207.16 189.68  L 209.3792 189.68  L 211.5984 189.68  L 213.8176 189.68  L 216.0368 189.68  L 218.256 189.68  L 220.4752 189.68  L 222.6944 189.68  L 224.9136 189.68  L 227.1328 189.68  L 229.352 189.68  L 231.5712 189.68  L 233.7904 189.68  L 236.0096 189.68  L 238.2288 189.68  L 240.448 189.68  L 242.6672 189.68  L 244.8864 189.68  L 247.1056 189.68  L 249.3248 189.68  L 251.544 189.68  L 253.7632 189.68  L 255.9824 189.68  L 258.2016 189.68  L 260.4208 189.68  L 262.64 189.68  L 264.8592 189.68  L 267.0784 189.68  L 269.2976 189.68  L 271.5168 189.68  L 273.736 189.68  L 275.9552 189.68  L 278.1744 189.68  L 280.3936 189.68  L 282.6128 189.68  L 284.832 189.68  L 287.0512 189.68  L 289.2704 189.68  L 291.4896 189.68  L 293.7088 189.68  L 295.928 189.68  L 298.1472 189.68  L 300.3664 189.68  L 302.5856 189.68  L 304.8048 189.68  L 307.024 189.68  L 309.2432 189.68  L 311.4624 189.68  L 313.6816 189.68  L 315.9008 189.68  L 318.12 189.68  L 320.3392 189.68  L 322.5584 189.68  L 324.7776 189.68  L 326.9968 189.68  L 329.216 189.68  L 331.4352 189.68  L 333.6544 189.68  L 335.8736 189.68  L 338.0928 189.68  L 340.312 189.68  L 342.5312 189.68  L 344.7504 189.68  L 346.9696 189.68  L 349.1888 189.68  L 351.408 189.68  L 353.6272 189.68  L 355.8464 189.68  L 358.0656 189.68  L 360.2848 189.68  L 362.504 189.68  L 364.7232 189.68  L 366.9424 189.68  L 369.1616 189.68  L 371.3808 189.68  L 373.6 189.68  L 375.8192 189.68  L 378.0384 189.68  L 380.2576 189.68  L 382.4768 189.68  L 384.696 189.68  L 386.9152 189.68  L 389.1344 189.68  L 391.3536 189.68  L 393.5728 189.68  L 395.792 189.68  L 398.0112 189.68  L 400.2304 189.68  L 402.4496 189.68  L 404.6688 189.68  L 406.888 189.68  L 409.1072 189.68  L 411.3264 189.68  L 413.5456 189.68  L 415.7648 189.68  L 417.984 189.68  L 420.2032 189.68  L 422.4224 189.68  L 424.6416 189.68  L 426.8608 189.68  L 429.08 189.68  L 431.2992 189.68  L 433.5184 189.68  L 435.7376 189.68  L 437.9568 189.68  L 440.176 189.68  L 442.3952 189.68  L 444.6144 189.68  L 446.8336 189.68  L 449.0528 189.68  L 451.272 189.68  L 453.4912 189.68  L 455.7104 189.68  L 457.9296 189.68  L 460.1488 189.68  L 462.368 189.68  L 464.5872 189.68  L 466.8064 189.68  L 469.0256 189.68  L 471.2448 189.68  L 473.464 189.68  L 475.6832 189.68  L 477.9024 189.68  L 480.1216 189.68  L 482.3408 189.68  L 484.56 189.68  L 484.56 189.047292  L 484.56 189.047292  L 482.3408 188.985982  L 480.1216 188.92208  L 477.9024 188.855726  L 475.6832 188.787053  L 473.464 188.716173  L 471.2448 188.643175  L 469.0256 188.568122  L 466.8064 188.491044  L 464.5872 188.411934  L 462.368 188.330752  L 460.1488 188.247421  L 457.9296 188.161829  L 455.7104 188.073829  L 453.4912 187.983246  L 451.272 187.889877  L 449.0528 187.793494  L 446.8336 187.693849  L 444.6144 187.590679  L 442.3952 187.483705  L 440.176 187.372639  L 437.9568 187.257183  L 435.7376 187.137035  L 433.5184 187.011885  L 431.2992 186.881423  L 429.08 186.745333  L 426.8608 186.603295  L 424.6416 186.454987  L 422.4224 186.300083  L 420.2032 186.138251  L 417.984 185.969155  L 415.7648 185.792449  L 413.5456 185.607784  L 411.3264 185.414799  L 409.1072 185.213123  L 406.888 185.002377  L 404.6688 184.782169  L 402.4496 184.552093  L 400.2304 184.311733  L 398.0112 184.060657  L 395.792 183.798418  L 393.5728 183.524556  L 391.3536 183.238593  L 389.1344 182.940036  L 386.9152 182.628373  L 384.696 182.303079  L 382.4768 181.963607  L 380.2576 181.609393  L 378.0384 181.239856  L 375.8192 180.854395  L 373.6 180.452389  L 371.3808 180.033199  L 369.1616 179.596165  L 366.9424 179.140607  L 364.7232 178.665826  L 362.504 178.1711  L 360.2848 177.655689  L 358.0656 177.118831  L 355.8464 176.559742  L 353.6272 175.977621  L 351.408 175.371641  L 349.1888 174.740958  L 346.9696 174.084708  L 344.7504 173.402003  L 342.5312 172.69194  L 340.312 171.953593  L 338.0928 171.186018  L 335.8736 170.388254  L 333.6544 169.559322  L 331.4352 168.698227  L 329.216 167.803956  L 326.9968 166.875485  L 324.7776 165.911775  L 322.5584 164.911777  L 320.3392 163.874431  L 318.12 162.798671  L 315.9008 161.683424  L 313.6816 160.527613  L 311.4624 159.330164  L 309.2432 158.09  L 307.024 156.806055  L 304.8048 155.477267  L 302.5856 154.10259  L 300.3664 152.680995  L 298.1472 151.211472  L 295.928 149.693039  L 293.7088 148.124745  L 291.4896 146.505679  L 289.2704 144.83497  L 287.0512 143.111799  L 284.832 141.335406  L 282.6128 139.505095  L 280.3936 137.620244  L 278.1744 135.680315  L 275.9552 133.684861  L 273.736 131.63354  L 271.5168 129.526122  L 269.2976 127.362503  L 267.0784 125.142719  L 264.8592 122.866956  L 262.64 120.535564  L 260.4208 118.149078  L 258.2016 115.708226  L 255.9824 113.213949  L 253.7632 110.667422  L 251.544 108.070067  L 249.3248 105.423575  L 247.1056 102.729929  L 244.8864 99.99142  L 242.6672 97.210675  L 240.448 94.390675  L 238.2288 91.534785  L 236.0096 88.646773  L 233.7904 85.730842  L 231.5712 82.791649  L 229.352 79.834339  L 227.1328 76.864569  L 224.9136 73.888534  L 222.6944 70.912998  L 220.4752 67.945321  L 218.256 64.99348  L 216.0368 62.066102  L 213.8176 59.172484  L 211.5984 56.322615  L 209.3792 53.527192  L 207.16 50.797642  L 204.9408 48.146124  L 202.7216 45.585538  L 200.5024 43.12952  L 198.2832 40.792429  L 196.064 38.589327  L 193.8448 36.535938  L 191.6256 34.648601  L 189.4064 32.9442  L 187.1872 31.440078  L 184.968 30.153925  L 182.7488 29.103645  L 180.5296 28.307192  L 178.3104 27.782381  L 176.0912 27.546667  L 173.872 27.616891  L 171.6528 28.009  L 169.4336 28.737735  L 167.2144 29.816288  L 164.9952 31.255951  L 162.776 33.065736  L 160.5568 35.251994  L 158.3376 37.818041  L 156.1184 40.763799  L 153.8992 44.08546  L 151.68 47.775204  L 149.4608 51.820974  L 147.2416 56.206323  L 145.0224 60.910358  L 142.8032 65.90778  L 140.584 71.169039  L 138.3648 76.660612  L 136.1456 82.345392  L 133.9264 88.183204  L 131.7072 94.131424  L 129.488 100.145697  L 127.2688 106.180727  L 125.0496 112.191126  L 122.8304 118.132282  L 120.6112 123.961229  L 118.392 129.637479  L 116.1728 135.123791  L 113.9536 140.38685  L 111.7344 145.39783  L 109.5152 150.132819  L 107.296 154.573105  L 105.0768 158.705296  L 102.8576 162.521298  L 100.6384 166.018139  L 98.4192 169.197668  L 96.2 172.066129  L 93.9808 174.633653  L 91.7616 176.91368  L 89.5424 178.922335  L 87.3232 180.6778  L 85.104 182.199683  L 82.8848 183.508426  L 80.6656 184.624761  L 78.4464 185.569223  L 76.2272 186.361736  L 74.008 187.021283  L 71.7888 187.565644  L 69.5696 188.011213  L 67.3504 188.372886  L 65.1312 188.664007  L 62.912 188.896377  L 60.6928 189.080291  L 58.4736 189.224627  L 56.2544 189.336944  L 54.0352 189.423601  L 51.816 189.489893  L 49.5968 189.540173  L 47.3776 189.577981  L 45.1584 189.606168  L 42.9392 189.627  L 40.72 189.642265  z " clip-path="url(#p650b197866)" style="fill: #7aa0d3"/>
   </g>
   <g id="PolyCollection_2">
    <path d="M 107.192602 154.765635  L 107.192602 189.68  L 107.296 189.68  L 109.5152 189.68  L 111.7344 189.68  L 113.9536 189.68  L 116.1728 189.68  L 118.392 189.68  L 120.6112 189.68  L 122.8304 189.68  L 125.0496 189.68  L 127.2688 189.68  L 129.488 189.68  L 131.7072 189.68  L 133.9264 189.68  L 136.1456 189.68  L 138.3648 189.68  L 140.584 189.68  L 142.8032 189.68  L 145.0224 189.68  L 147.2416 189.68  L 149.4608 189.68  L 151.68 189.68  L 153.8992 189.68  L 156.1184 189.68  L 158.3376 189.68  L 160.5568 189.68  L 162.776 189.68  L 164.9952 189.68  L 167.2144 189.68  L 169.4336 189.68  L 171.6528 189.68  L 173.872 189.68  L 176.0912 189.68  L 178.3104 189.68  L 180.5296 189.68  L 182.7488 189.68  L 184.968 189.68  L 187.1872 189.68  L 189.4064 189.68  L 191.6256 189.68  L 193.8448 189.68  L 196.064 189.68  L 198.2832 189.68  L 200.5024 189.68  L 202.7216 189.68  L 204.9408 189.68  L 207.16 189.68  L 209.3792 189.68  L 211.5984 189.68  L 213.8176 189.68  L 216.0368 189.68  L 218.256 189.68  L 220.4752 189.68  L 222.6944 189.68  L 224.9136 189.68  L 227.1328 189.68  L 229.352 189.68  L 231.5712 189.68  L 233.7904 189.68  L 236.0096 189.68  L 238.2288 189.68  L 240.448 189.68  L 242.6672 189.68  L 244.8864 189.68  L 247.1056 189.68  L 249.3248 189.68  L 251.544 189.68  L 253.7632 189.68  L 255.9824 189.68  L 258.2016 189.68  L 260.4208 189.68  L 262.64 189.68  L 264.8592 189.68  L 267.0784 189.68  L 269.2976 189.68  L 271.5168 189.68  L 273.736 189.68  L 275.9552 189.68  L 278.1744 189.68  L 280.3936 189.68  L 282.6128 189.68  L 284.832 189.68  L 287.0512 189.68  L 289.2704 189.68  L 291.4896 189.68  L 293.7088 189.68  L 295.928 189.68  L 298.1472 189.68  L 300.3664 189.68  L 302.5856 189.68  L 303.608438 189.68  L 303.608438 154.736184  L 303.608438 154.736184  L 302.5856 154.10259  L 300.3664 152.680995  L 298.1472 151.211472  L 295.928 149.693039  L 293.7088 148.124745  L 291.4896 146.505679  L 289.2704 144.83497  L 287.0512 143.111799  L 284.832 141.335406  L 282.6128 139.505095  L 280.3936 137.620244  L 278.1744 135.680315  L 275.9552 133.684861  L 273.736 131.63354  L 271.5168 129.526122  L 269.2976 127.362503  L 267.0784 125.142719  L 264.8592 122.866956  L 262.64 120.535564  L 260.4208 118.149078  L 258.2016 115.708226  L 255.9824 113.213949  L 253.7632 110.667422  L 251.544 108.070067  L 249.3248 105.423575  L 247.1056 102.729929  L 244.8864 99.99142  L 242.6672 97.210675  L 240.448 94.390675  L 238.2288 91.534785  L 236.0096 88.646773  L 233.7904 85.730842  L 231.5712 82.791649  L 229.352 79.834339  L 227.1328 76.864569  L 224.9136 73.888534  L 222.6944 70.912998  L 220.4752 67.945321  L 218.256 64.99348  L 216.0368 62.066102  L 213.8176 59.172484  L 211.5984 56.322615  L 209.3792 53.527192  L 207.16 50.797642  L 204.9408 48.146124  L 202.7216 45.585538  L 200.5024 43.12952  L 198.2832 40.792429  L 196.064 38.589327  L 193.8448 36.535938  L 191.6256 34.648601  L 189.4064 32.9442  L 187.1872 31.440078  L 184.968 30.153925  L 182.7488 29.103645  L 180.5296 28.307192  L 178.3104 27.782381  L 176.0912 27.546667  L 173.872 27.616891  L 171.6528 28.009  L 169.4336 28.737735  L 167.2144 29.816288  L 164.9952 31.255951  L 162.776 33.065736  L 160.5568 35.251994  L 158.3376 37.818041  L 156.1184 40.763799  L 153.8992 44.08546  L 151.68 47.775204  L 149.4608 51.820974  L 147.2416 56.206323  L 145.0224 60.910358  L 142.8032 65.90778  L 140.584 71.169039  L 138.3648 76.660612  L 136.1456 82.345392  L 133.9264 88.183204  L 131.7072 94.131424  L 129.488 100.145697  L 127.2688 106.180727  L 125.0496 112.191126  L 122.8304 118.132282  L 120.6112 123.961229  L 118.392 129.637479  L 116.1728 135.123791  L 113.9536 140.38685  L 111.7344 145.39783  L 109.5152 150.132819  L 107.296 154.573105  L 107.192602 154.765635  z " clip-path="url(#p650b197866)" style="fill: #8b76dc"/>
   </g>
   <g id="PolyCollection_3">
    <path d="M 107.192602 11.333333  L 107.192602 154.765635  L 107.296 154.573105  L 109.5152 150.132819  L 111.7344 145.39783  L 113.9536 140.38685  L 116.1728 135.123791  L 118.392 129.637479  L 120.6112 123.961229  L 122.8304 118.132282  L 125.0496 112.191126  L 127.2688 106.180727  L 129.488 100.145697  L 131.7072 94.131424  L 133.9264 88.183204  L 136.1456 82.345392  L 138.3648 76.660612  L 140.584 71.169039  L 142.8032 65.90778  L 145.0224 60.910358  L 147.2416 56.206323  L 149.4608 51.820974  L 151.68 47.775204  L 153.8992 44.08546  L 156.1184 40.763799  L 158.3376 37.818041  L 160.5568 35.251994  L 162.776 33.065736  L 164.9952 31.255951  L 167.2144 29.816288  L 169.4336 28.737735  L 171.6528 28.009  L 173.872 27.616891  L 176.0912 27.546667  L 178.3104 27.782381  L 180.5296 28.307192  L 182.7488 29.103645  L 184.968 30.153925  L 187.1872 31.440078  L 189.4064 32.9442  L 191.6256 34.648601  L 193.8448 36.535938  L 196.064 38.589327  L 198.2832 40.792429  L 200.5024 43.12952  L 202.7216 45.585538  L 204.9408 48.146124  L 207.16 50.797642  L 209.3792 53.527192  L 211.5984 56.322615  L 213.8176 59.172484  L 216.0368 62.066102  L 218.256 64.99348  L 220.4752 67.945321  L 222.6944 70.912998  L 224.9136 73.888534  L 227.1328 76.864569  L 229.352 79.834339  L 231.5712 82.791649  L 233.7904 85.730842  L 236.0096 88.646773  L 238.2288 91.534785  L 240.448 94.390675  L 242.6672 97.210675  L 244.8864 99.99142  L 247.1056 102.729929  L 249.3248 105.423575  L 251.544 108.070067  L 253.7632 110.667422  L 255.9824 113.213949  L 258.2016 115.708226  L 260.4208 118.149078  L 262.64 120.535564  L 264.8592 122.866956  L 267.0784 125.142719  L 269.2976 127.362503  L 271.5168 129.526122  L 273.736 131.63354  L 275.9552 133.684861  L 278.1744 135.680315  L 280.3936 137.620244  L 282.6128 139.505095  L 284.832 141.335406  L 287.0512 143.111799  L 289.2704 144.83497  L 291.4896 146.505679  L 293.7088 148.124745  L 295.928 149.693039  L 298.1472 151.211472  L 300.3664 152.680995  L 302.5856 154.10259  L 303.608438 154.736184  L 303.608438 11.333333  L 303.608438 11.333333  L 302.5856 11.333333  L 300.3664 11.333333  L 298.1472 11.333333  L 295.928 11.333333  L 293.7088 11.333333  L 291.4896 11.333333  L 289.2704 11.333333  L 287.0512 11.333333  L 284.832 11.333333  L 282.6128 11.333333  L 280.3936 11.333333  L 278.1744 11.333333  L 275.9552 11.333333  L 273.736 11.333333  L 271.5168 11.333333  L 269.2976 11.333333  L 267.0784 11.333333  L 264.8592 11.333333  L 262.64 11.333333  L 260.4208 11.333333  L 258.2016 11.333333  L 255.9824 11.333333  L 253.7632 11.333333  L 251.544 11.333333  L 249.3248 11.333333  L 247.1056 11.333333  L 244.8864 11.333333  L 242.6672 11.333333  L 240.448 11.333333  L 238.2288 11.333333  L 236.0096 11.333333  L 233.7904 11.333333  L 231.5712 11.333333  L 229.352 11.333333  L 227.1328 11.333333  L 224.9136 11.333333  L 222.6944 11.333333  L 220.4752 11.333333  L 218.256 11.333333  L 216.0368 11.333333  L 213.8176 11.333333  L 211.5984 11.333333  L 209.3792 11.333333  L 207.16 11.333333  L 204.9408 11.333333  L 202.7216 11.333333  L 200.5024 11.333333  L 198.2832 11.333333  L 196.064 11.333333  L 193.8448 11.333333  L 191.6256 11.333333  L 189.4064 11.333333  L 187.1872 11.333333  L 184.968 11.333333  L 182.7488 11.333333  L 180.5296 11.333333  L 178.3104 11.333333  L 176.0912 11.333333  L 173.872 11.333333  L 171.6528 11.333333  L 169.4336 11.333333  L 167.2144 11.333333  L 164.9952 11.333333  L 162.776 11.333333  L 160.5568 11.333333  L 158.3376 11.333333  L 156.1184 11.333333  L 153.8992 11.333333  L 151.68 11.333333  L 149.4608 11.333333  L 147.2416 11.333333  L 145.0224 11.333333  L 142.8032 11.333333  L 140.584 11.333333  L 138.3648 11.333333  L 136.1456 11.333333  L 133.9264 11.333333  L 131.7072 11.333333  L 129.488 11.333333  L 127.2688 11.333333  L 125.0496 11.333333  L 122.8304 11.333333  L 120.6112 11.333333  L 118.392 11.333333  L 116.1728 11.333333  L 113.9536 11.333333  L 111.7344 11.333333  L 109.5152 11.333333  L 107.296 11.333333  L 107.192602 11.333333  z " clip-path="url(#p650b197866)" style="fill: #fee2fe"/>
   </g>
   <g id="matplotlib.axis_1">
    <g id="text_1">
     <!-- Value of the parameter -->
     <g transform="translate(158.383438 207.357188) scale(0.18 -0.18)">
      <defs>
       <path id="DejaVuSans-56" d="M 1831 0  L 50 4666  L 709 4666  L 2188 738  L 3669 4666  L 4325 4666  L 2547 0  L 1831 0  z " transform="scale(0.015625)"/>
       <path id="DejaVuSans-61" d="M 2194 1759  Q 1497 1759 1228 1600  Q 959 1441 959 1056  Q 959 750 1161 570  Q 1363 391 1709 391  Q 2188 391 2477 730  Q 2766 1069 2766 1631  L 2766 1759  L 2194 1759  z M 3341 1997  L 3341 0  L 2766 0  L 2766 531  Q 2569 213 2275 61  Q 1981 -91 1556 -91  Q 1019 -91 701 211  Q 384 513 384 1019  Q 384 1609 779 1909  Q 1175 2209 1959 2209  L 2766 2209  L 2766 2266  Q 2766 2663 2505 2880  Q 2244 3097 1772 3097  Q 1472 3097 1187 3025  Q 903 2953 641 2809  L 641 3341  Q 956 3463 1253 3523  Q 1550 3584 1831 3584  Q 2591 3584 2966 3190  Q 3341 2797 3341 1997  z " transform="scale(0.015625)"/>
       <path id="DejaVuSans-6c" d="M 603 4863  L 1178 4863  L 1178 0  L 603 0  L 603 4863  z " transform="scale(0.015625)"/>
       <path id="DejaVuSans-75" d="M 544 1381  L 544 3500  L 1119 3500  L 1119 1403  Q 1119 906 1312 657  Q 1506 409 1894 409  Q 2359 409 2629 706  Q 2900 1003 2900 1516  L 2900 3500  L 3475 3500  L 3475 0  L 2900 0  L 2900 538  Q 2691 219 2414 64  Q 2138 -91 1772 -91  Q 1169 -91 856 284  Q 544 659 544 1381  z M 1991 3584  L 1991 3584  z " transform="scale(0.015625)"/>
       <path id="DejaVuSans-65" d="M 3597 1894  L 3597 1613  L 953 1613  Q 991 1019 1311 708  Q 1631 397 2203 397  Q 2534 397 2845 478  Q 3156 559 3463 722  L 3463 178  Q 3153 47 2828 -22  Q 2503 -91 2169 -91  Q 1331 -91 842 396  Q 353 884 353 1716  Q 353 2575 817 3079  Q 1281 3584 2069 3584  Q 2775 3584 3186 3129  Q 3597 2675 3597 1894  z M 3022 2063  Q 3016 2534 2758 2815  Q 2500 3097 2075 3097  Q 1594 3097 1305 2825  Q 1016 2553 972 2059  L 3022 2063  z " transform="scale(0.015625)"/>
       <path id="DejaVuSans-20" transform="scale(0.015625)"/>
       <path id="DejaVuSans-6f" d="M 1959 3097  Q 1497 3097 1228 2736  Q 959 2375 959 1747  Q 959 1119 1226 758  Q 1494 397 1959 397  Q 2419 397 2687 759  Q 2956 1122 2956 1747  Q 2956 2369 2687 2733  Q 2419 3097 1959 3097  z M 1959 3584  Q 2709 3584 3137 3096  Q 3566 2609 3566 1747  Q 3566 888 3137 398  Q 2709 -91 1959 -91  Q 1206 -91 779 398  Q 353 888 353 1747  Q 353 2609 779 3096  Q 1206 3584 1959 3584  z " transform="scale(0.015625)"/>
       <path id="DejaVuSans-66" d="M 2375 4863  L 2375 4384  L 1825 4384  Q 1516 4384 1395 4259  Q 1275 4134 1275 3809  L 1275 3500  L 2222 3500  L 2222 3053  L 1275 3053  L 1275 0  L 697 0  L 697 3053  L 147 3053  L 147 3500  L 697 3500  L 697 3744  Q 697 4328 969 4595  Q 1241 4863 1831 4863  L 2375 4863  z " transform="scale(0.015625)"/>
       <path id="DejaVuSans-74" d="M 1172 4494  L 1172 3500  L 2356 3500  L 2356 3053  L 1172 3053  L 1172 1153  Q 1172 725 1289 603  Q 1406 481 1766 481  L 2356 481  L 2356 0  L 1766 0  Q 1100 0 847 248  Q 594 497 594 1153  L 594 3053  L 172 3053  L 172 3500  L 594 3500  L 594 4494  L 1172 4494  z " transform="scale(0.015625)"/>
       <path id="DejaVuSans-68" d="M 3513 2113  L 3513 0  L 2938 0  L 2938 2094  Q 2938 2591 2744 2837  Q 2550 3084 2163 3084  Q 1697 3084 1428 2787  Q 1159 2491 1159 1978  L 1159 0  L 581 0  L 581 4863  L 1159 4863  L 1159 2956  Q 1366 3272 1645 3428  Q 1925 3584 2291 3584  Q 2894 3584 3203 3211  Q 3513 2838 3513 2113  z " transform="scale(0.015625)"/>
       <path id="DejaVuSans-70" d="M 1159 525  L 1159 -1331  L 581 -1331  L 581 3500  L 1159 3500  L 1159 2969  Q 1341 3281 1617 3432  Q 1894 3584 2278 3584  Q 2916 3584 3314 3078  Q 3713 2572 3713 1747  Q 3713 922 3314 415  Q 2916 -91 2278 -91  Q 1894 -91 1617 61  Q 1341 213 1159 525  z M 3116 1747  Q 3116 2381 2855 2742  Q 2594 3103 2138 3103  Q 1681 3103 1420 2742  Q 1159 2381 1159 1747  Q 1159 1113 1420 752  Q 1681 391 2138 391  Q 2594 391 2855 752  Q 3116 1113 3116 1747  z " transform="scale(0.015625)"/>
       <path id="DejaVuSans-72" d="M 2631 2963  Q 2534 3019 2420 3045  Q 2306 3072 2169 3072  Q 1681 3072 1420 2755  Q 1159 2438 1159 1844  L 1159 0  L 581 0  L 581 3500  L 1159 3500  L 1159 2956  Q 1341 3275 1631 3429  Q 1922 3584 2338 3584  Q 2397 3584 2469 3576  Q 2541 3569 2628 3553  L 2631 2963  z " transform="scale(0.015625)"/>
       <path id="DejaVuSans-6d" d="M 3328 2828  Q 3544 3216 3844 3400  Q 4144 3584 4550 3584  Q 5097 3584 5394 3201  Q 5691 2819 5691 2113  L 5691 0  L 5113 0  L 5113 2094  Q 5113 2597 4934 2840  Q 4756 3084 4391 3084  Q 3944 3084 3684 2787  Q 3425 2491 3425 1978  L 3425 0  L 2847 0  L 2847 2094  Q 2847 2600 2669 2842  Q 2491 3084 2119 3084  Q 1678 3084 1418 2786  Q 1159 2488 1159 1978  L 1159 0  L 581 0  L 581 3500  L 1159 3500  L 1159 2956  Q 1356 3278 1631 3431  Q 1906 3584 2284 3584  Q 2666 3584 2933 3390  Q 3200 3197 3328 2828  z " transform="scale(0.015625)"/>
      </defs>
      <use xlink:href="#DejaVuSans-56"/>
      <use xlink:href="#DejaVuSans-61" x="60.658203"/>
      <use xlink:href="#DejaVuSans-6c" x="121.9375"/>
      <use xlink:href="#DejaVuSans-75" x="149.720703"/>
      <use xlink:href="#DejaVuSans-65" x="213.099609"/>
      <use xlink:href="#DejaVuSans-20" x="274.623047"/>
      <use xlink:href="#DejaVuSans-6f" x="306.410156"/>
      <use xlink:href="#DejaVuSans-66" x="367.591797"/>
      <use xlink:href="#DejaVuSans-20" x="402.796875"/>
      <use xlink:href="#DejaVuSans-74" x="434.583984"/>
      <use xlink:href="#DejaVuSans-68" x="473.792969"/>
      <use xlink:href="#DejaVuSans-65" x="537.171875"/>
      <use xlink:href="#DejaVuSans-20" x="598.695312"/>
      <use xlink:href="#DejaVuSans-70" x="630.482422"/>
      <use xlink:href="#DejaVuSans-61" x="693.958984"/>
      <use xlink:href="#DejaVuSans-72" x="755.238281"/>
      <use xlink:href="#DejaVuSans-61" x="796.351562"/>
      <use xlink:href="#DejaVuSans-6d" x="857.630859"/>
      <use xlink:href="#DejaVuSans-65" x="955.042969"/>
      <use xlink:href="#DejaVuSans-74" x="1016.566406"/>
      <use xlink:href="#DejaVuSans-65" x="1055.775391"/>
      <use xlink:href="#DejaVuSans-72" x="1117.298828"/>
     </g>
    </g>
   </g>
   <g id="matplotlib.axis_2">
    <g id="text_2">
     <!-- Probability density -->
     <g transform="translate(32.976562 187.991406) rotate(-90) scale(0.18 -0.18)">
      <defs>
       <path id="DejaVuSans-50" d="M 1259 4147  L 1259 2394  L 2053 2394  Q 2494 2394 2734 2622  Q 2975 2850 2975 3272  Q 2975 3691 2734 3919  Q 2494 4147 2053 4147  L 1259 4147  z M 628 4666  L 2053 4666  Q 2838 4666 3239 4311  Q 3641 3956 3641 3272  Q 3641 2581 3239 2228  Q 2838 1875 2053 1875  L 1259 1875  L 1259 0  L 628 0  L 628 4666  z " transform="scale(0.015625)"/>
       <path id="DejaVuSans-62" d="M 3116 1747  Q 3116 2381 2855 2742  Q 2594 3103 2138 3103  Q 1681 3103 1420 2742  Q 1159 2381 1159 1747  Q 1159 1113 1420 752  Q 1681 391 2138 391  Q 2594 391 2855 752  Q 3116 1113 3116 1747  z M 1159 2969  Q 1341 3281 1617 3432  Q 1894 3584 2278 3584  Q 2916 3584 3314 3078  Q 3713 2572 3713 1747  Q 3713 922 3314 415  Q 2916 -91 2278 -91  Q 1894 -91 1617 61  Q 1341 213 1159 525  L 1159 0  L 581 0  L 581 4863  L 1159 4863  L 1159 2969  z " transform="scale(0.015625)"/>
       <path id="DejaVuSans-69" d="M 603 3500  L 1178 3500  L 1178 0  L 603 0  L 603 3500  z M 603 4863  L 1178 4863  L 1178 4134  L 603 4134  L 603 4863  z " transform="scale(0.015625)"/>
       <path id="DejaVuSans-79" d="M 2059 -325  Q 1816 -950 1584 -1140  Q 1353 -1331 966 -1331  L 506 -1331  L 506 -850  L 844 -850  Q 1081 -850 1212 -737  Q 1344 -625 1503 -206  L 1606 56  L 191 3500  L 800 3500  L 1894 763  L 2988 3500  L 3597 3500  L 2059 -325  z " transform="scale(0.015625)"/>
       <path id="DejaVuSans-64" d="M 2906 2969  L 2906 4863  L 3481 4863  L 3481 0  L 2906 0  L 2906 525  Q 2725 213 2448 61  Q 2172 -91 1784 -91  Q 1150 -91 751 415  Q 353 922 353 1747  Q 353 2572 751 3078  Q 1150 3584 1784 3584  Q 2172 3584 2448 3432  Q 2725 3281 2906 2969  z M 947 1747  Q 947 1113 1208 752  Q 1469 391 1925 391  Q 2381 391 2643 752  Q 2906 1113 2906 1747  Q 2906 2381 2643 2742  Q 2381 3103 1925 3103  Q 1469 3103 1208 2742  Q 947 2381 947 1747  z " transform="scale(0.015625)"/>
       <path id="DejaVuSans-6e" d="M 3513 2113  L 3513 0  L 2938 0  L 2938 2094  Q 2938 2591 2744 2837  Q 2550 3084 2163 3084  Q 1697 3084 1428 2787  Q 1159 2491 1159 1978  L 1159 0  L 581 0  L 581 3500  L 1159 3500  L 1159 2956  Q 1366 3272 1645 3428  Q 1925 3584 2291 3584  Q 2894 3584 3203 3211  Q 3513 2838 3513 2113  z " transform="scale(0.015625)"/>
       <path id="DejaVuSans-73" d="M 2834 3397  L 2834 2853  Q 2591 2978 2328 3040  Q 2066 3103 1784 3103  Q 1356 3103 1142 2972  Q 928 2841 928 2578  Q 928 2378 1081 2264  Q 1234 2150 1697 2047  L 1894 2003  Q 2506 1872 2764 1633  Q 3022 1394 3022 966  Q 3022 478 2636 193  Q 2250 -91 1575 -91  Q 1294 -91 989 -36  Q 684 19 347 128  L 347 722  Q 666 556 975 473  Q 1284 391 1588 391  Q 1994 391 2212 530  Q 2431 669 2431 922  Q 2431 1156 2273 1281  Q 2116 1406 1581 1522  L 1381 1569  Q 847 1681 609 1914  Q 372 2147 372 2553  Q 372 3047 722 3315  Q 1072 3584 1716 3584  Q 2034 3584 2315 3537  Q 2597 3491 2834 3397  z " transform="scale(0.015625)"/>
      </defs>
      <use xlink:href="#DejaVuSans-50"/>
      <use xlink:href="#DejaVuSans-72" x="58.552734"/>
      <use xlink:href="#DejaVuSans-6f" x="97.416016"/>
      <use xlink:href="#DejaVuSans-62" x="158.597656"/>
      <use xlink:href="#DejaVuSans-61" x="222.074219"/>
      <use xlink:href="#DejaVuSans-62" x="283.353516"/>
      <use xlink:href="#DejaVuSans-69" x="346.830078"/>
      <use xlink:href="#DejaVuSans-6c" x="374.613281"/>
      <use xlink:href="#DejaVuSans-69" x="402.396484"/>
      <use xlink:href="#DejaVuSans-74" x="430.179688"/>
      <use xlink:href="#DejaVuSans-79" x="469.388672"/>
      <use xlink:href="#DejaVuSans-20" x="528.568359"/>
      <use xlink:href="#DejaVuSans-64" x="560.355469"/>
      <use xlink:href="#DejaVuSans-65" x="623.832031"/>
      <use xlink:href="#DejaVuSans-6e" x="685.355469"/>
      <use xlink:href="#DejaVuSans-73" x="748.734375"/>
      <use xlink:href="#DejaVuSans-69" x="800.833984"/>
      <use xlink:href="#DejaVuSans-74" x="828.617188"/>
      <use xlink:href="#DejaVuSans-79" x="867.826172"/>
     </g>
    </g>
   </g>
   <g id="line2d_1">
    <path d="M 40.72 189.642265  L 51.816 189.489893  L 58.4736 189.224627  L 62.912 188.896377  L 67.3504 188.372886  L 71.7888 187.565644  L 74.008 187.021283  L 76.2272 186.361736  L 78.4464 185.569223  L 80.6656 184.624761  L 82.8848 183.508426  L 85.104 182.199683  L 87.3232 180.6778  L 89.5424 178.922335  L 91.7616 176.91368  L 93.9808 174.633653  L 96.2 172.066129  L 98.4192 169.197668  L 100.6384 166.018139  L 102.8576 162.521298  L 105.0768 158.705296  L 107.296 154.573105  L 109.5152 150.132819  L 111.7344 145.39783  L 116.1728 135.123791  L 120.6112 123.961229  L 127.2688 106.180727  L 136.1456 82.345392  L 140.584 71.169039  L 145.0224 60.910358  L 147.2416 56.206323  L 149.4608 51.820974  L 151.68 47.775204  L 153.8992 44.08546  L 156.1184 40.763799  L 158.3376 37.818041  L 160.5568 35.251994  L 162.776 33.065736  L 164.9952 31.255951  L 167.2144 29.816288  L 169.4336 28.737735  L 171.6528 28.009  L 173.872 27.616891  L 176.0912 27.546667  L 178.3104 27.782381  L 180.5296 28.307192  L 182.7488 29.103645  L 184.968 30.153925  L 187.1872 31.440078  L 189.4064 32.9442  L 191.6256 34.648601  L 193.8448 36.535938  L 198.2832 40.792429  L 202.7216 45.585538  L 207.16 50.797642  L 211.5984 56.322615  L 218.256 64.99348  L 240.448 94.390675  L 247.1056 102.729929  L 253.7632 110.667422  L 260.4208 118.149078  L 264.8592 122.866956  L 269.2976 127.362503  L 273.736 131.63354  L 278.1744 135.680315  L 282.6128 139.505095  L 287.0512 143.111799  L 291.4896 146.505679  L 295.928 149.693039  L 300.3664 152.680995  L 304.8048 155.477267  L 309.2432 158.09  L 315.9008 161.683424  L 322.5584 164.911777  L 329.216 167.803956  L 335.8736 170.388254  L 342.5312 172.69194  L 349.1888 174.740958  L 355.8464 176.559742  L 362.504 178.1711  L 369.1616 179.596165  L 378.0384 181.239856  L 386.9152 182.628373  L 395.792 183.798418  L 406.888 185.002377  L 417.984 185.969155  L 431.2992 186.881423  L 446.8336 187.693849  L 466.8064 188.491044  L 484.56 189.047292  L 484.56 189.047292  " clip-path="url(#p650b197866)" style="fill: none; stroke: #033193; stroke-width: 2; stroke-linecap: square"/>
   </g>
   <g id="line2d_2">
    <path d="M 107.192602 154.75091  L 303.608438 154.75091  " clip-path="url(#p650b197866)" style="fill: none; stroke-dasharray: 6,3; stroke-dashoffset: 0; stroke: #000000"/>
   </g>
   <g id="line2d_3">
    <path d="M 107.192602 189.68  L 107.192602 19.44  " clip-path="url(#p650b197866)" style="fill: none; stroke: #000000; stroke-width: 2; stroke-linecap: square"/>
   </g>
   <g id="line2d_4">
    <path d="M 303.608438 189.68  L 303.608438 19.44  " clip-path="url(#p650b197866)" style="fill: none; stroke: #000000; stroke-width: 2; stroke-linecap: square"/>
   </g>
   <g id="patch_3">
    <path d="M 40.72 189.68  L 40.72 19.44  " style="fill: none; stroke: #000000; stroke-width: 0.8; stroke-linejoin: miter; stroke-linecap: square"/>
   </g>
   <g id="patch_4">
    <path d="M 484.56 189.68  L 484.56 19.44  " style="fill: none; stroke: #000000; stroke-width: 0.8; stroke-linejoin: miter; stroke-linecap: square"/>
   </g>
   <g id="patch_5">
    <path d="M 40.72 189.68  L 484.56 189.68  " style="fill: none; stroke: #000000; stroke-width: 0.8; stroke-linejoin: miter; stroke-linecap: square"/>
   </g>
   <g id="patch_6">
    <path d="M 40.72 19.44  L 484.56 19.44  " style="fill: none; stroke: #000000; stroke-width: 0.8; stroke-linejoin: miter; stroke-linecap: square"/>
   </g>
   <g id="text_3">
    <!-- 90% -->
    <g transform="translate(175.53845 134.43182) scale(0.18 -0.18)">
     <defs>
      <path id="DejaVuSans-39" d="M 703 97  L 703 672  Q 941 559 1184 500  Q 1428 441 1663 441  Q 2288 441 2617 861  Q 2947 1281 2994 2138  Q 2813 1869 2534 1725  Q 2256 1581 1919 1581  Q 1219 1581 811 2004  Q 403 2428 403 3163  Q 403 3881 828 4315  Q 1253 4750 1959 4750  Q 2769 4750 3195 4129  Q 3622 3509 3622 2328  Q 3622 1225 3098 567  Q 2575 -91 1691 -91  Q 1453 -91 1209 -44  Q 966 3 703 97  z M 1959 2075  Q 2384 2075 2632 2365  Q 2881 2656 2881 3163  Q 2881 3666 2632 3958  Q 2384 4250 1959 4250  Q 1534 4250 1286 3958  Q 1038 3666 1038 3163  Q 1038 2656 1286 2365  Q 1534 2075 1959 2075  z " transform="scale(0.015625)"/>
      <path id="DejaVuSans-30" d="M 2034 4250  Q 1547 4250 1301 3770  Q 1056 3291 1056 2328  Q 1056 1369 1301 889  Q 1547 409 2034 409  Q 2525 409 2770 889  Q 3016 1369 3016 2328  Q 3016 3291 2770 3770  Q 2525 4250 2034 4250  z M 2034 4750  Q 2819 4750 3233 4129  Q 3647 3509 3647 2328  Q 3647 1150 3233 529  Q 2819 -91 2034 -91  Q 1250 -91 836 529  Q 422 1150 422 2328  Q 422 3509 836 4129  Q 1250 4750 2034 4750  z " transform="scale(0.015625)"/>
      <path id="DejaVuSans-25" d="M 4653 2053  Q 4381 2053 4226 1822  Q 4072 1591 4072 1178  Q 4072 772 4226 539  Q 4381 306 4653 306  Q 4919 306 5073 539  Q 5228 772 5228 1178  Q 5228 1588 5073 1820  Q 4919 2053 4653 2053  z M 4653 2450  Q 5147 2450 5437 2106  Q 5728 1763 5728 1178  Q 5728 594 5436 251  Q 5144 -91 4653 -91  Q 4153 -91 3862 251  Q 3572 594 3572 1178  Q 3572 1766 3864 2108  Q 4156 2450 4653 2450  z M 1428 4353  Q 1159 4353 1004 4120  Q 850 3888 850 3481  Q 850 3069 1003 2837  Q 1156 2606 1428 2606  Q 1700 2606 1854 2837  Q 2009 3069 2009 3481  Q 2009 3884 1853 4118  Q 1697 4353 1428 4353  z M 4250 4750  L 4750 4750  L 1831 -91  L 1331 -91  L 4250 4750  z M 1428 4750  Q 1922 4750 2215 4408  Q 2509 4066 2509 3481  Q 2509 2891 2217 2550  Q 1925 2209 1428 2209  Q 931 2209 642 2551  Q 353 2894 353 3481  Q 353 4063 643 4406  Q 934 4750 1428 4750  z " transform="scale(0.015625)"/>
     </defs>
     <use xlink:href="#DejaVuSans-39"/>
     <use xlink:href="#DejaVuSans-30" x="63.623047"/>
     <use xlink:href="#DejaVuSans-25" x="127.246094"/>
    </g>
   </g>
   <g id="text_4">
    <!-- 2% -->
    <g transform="translate(61.344822 173.226796) scale(0.18 -0.18)">
     <defs>
      <path id="DejaVuSans-32" d="M 1228 531  L 3431 531  L 3431 0  L 469 0  L 469 531  Q 828 903 1448 1529  Q 2069 2156 2228 2338  Q 2531 2678 2651 2914  Q 2772 3150 2772 3378  Q 2772 3750 2511 3984  Q 2250 4219 1831 4219  Q 1534 4219 1204 4116  Q 875 4013 500 3803  L 500 4441  Q 881 4594 1212 4672  Q 1544 4750 1819 4750  Q 2544 4750 2975 4387  Q 3406 4025 3406 3419  Q 3406 3131 3298 2873  Q 3191 2616 2906 2266  Q 2828 2175 2409 1742  Q 1991 1309 1228 531  z " transform="scale(0.015625)"/>
     </defs>
     <use xlink:href="#DejaVuSans-32"/>
     <use xlink:href="#DejaVuSans-25" x="63.623047"/>
    </g>
   </g>
   <g id="text_5">
    <!-- 8% -->
    <g transform="translate(320.900906 157.803324) scale(0.18 -0.18)">
     <defs>
      <path id="DejaVuSans-38" d="M 2034 2216  Q 1584 2216 1326 1975  Q 1069 1734 1069 1313  Q 1069 891 1326 650  Q 1584 409 2034 409  Q 2484 409 2743 651  Q 3003 894 3003 1313  Q 3003 1734 2745 1975  Q 2488 2216 2034 2216  z M 1403 2484  Q 997 2584 770 2862  Q 544 3141 544 3541  Q 544 4100 942 4425  Q 1341 4750 2034 4750  Q 2731 4750 3128 4425  Q 3525 4100 3525 3541  Q 3525 3141 3298 2862  Q 3072 2584 2669 2484  Q 3125 2378 3379 2068  Q 3634 1759 3634 1313  Q 3634 634 3220 271  Q 2806 -91 2034 -91  Q 1263 -91 848 271  Q 434 634 434 1313  Q 434 1759 690 2068  Q 947 2378 1403 2484  z M 1172 3481  Q 1172 3119 1398 2916  Q 1625 2713 2034 2713  Q 2441 2713 2670 2916  Q 2900 3119 2900 3481  Q 2900 3844 2670 4047  Q 2441 4250 2034 4250  Q 1625 4250 1398 4047  Q 1172 3844 1172 3481  z " transform="scale(0.015625)"/>
     </defs>
     <use xlink:href="#DejaVuSans-38"/>
     <use xlink:href="#DejaVuSans-25" x="63.623047"/>
    </g>
   </g>
  </g>
 </g>
 <defs>
  <clipPath id="p650b197866">
   <rect x="40.72" y="19.44" width="443.84" height="170.24"/>
  </clipPath>
 </defs>
<script xmlns=""/></svg>